<svg width="16" height="16" viewBox="0 0 16 16" fill="none" xmlns="http://www.w3.org/2000/svg">
<path d="M14.6413 3.19149L12.8225 1.37192C12.6901 1.24513 12.5331 1.14687 12.3612 1.08325C12.1894 1.01962 12.0062 0.991968 11.8232 1.00201C11.039 1.06562 10.3075 1.4226 9.77466 2.00178L1.96011 9.80993C1.70315 10.0525 1.53139 10.3716 1.47045 10.7197L1.02077 14.1989C0.995273 14.2968 0.993363 14.3994 1.01519 14.4982C1.03702 14.597 1.08197 14.6893 1.14634 14.7673C1.21071 14.8454 1.29268 14.9071 1.3855 14.9473C1.47832 14.9875 1.57936 15.0051 1.68031 14.9987H1.82021L5.29779 14.5588C5.64576 14.4978 5.96473 14.326 6.20715 14.0689L14.0117 6.24077C15.011 5.23101 15.3108 3.86134 14.6413 3.19149ZM5.14789 12.9992L5.06795 13.0592L2.64963 13.3691L2.95941 10.9997L3.01937 10.8697L8.7154 5.17103L10.8439 7.30052L5.14789 12.9992ZM13.0124 5.18102L11.9032 6.24077L9.77466 4.11128L10.8339 3.05153C11.0953 2.76043 11.4475 2.56658 11.8332 2.50166L13.5121 4.18126C13.4585 4.55999 13.2831 4.91096 13.0124 5.18102Z" fill="#757986"/>
</svg>
